<?xml version="1.0" encoding="UTF-8"?>
<svg width="24px" height="24px" viewBox="0 0 24 24" version="1.1" xmlns="http://www.w3.org/2000/svg" xmlns:xlink="http://www.w3.org/1999/xlink">
   <path d="M22.0778246,5.1820831 C20.9159327,6.3519702 19.2196226,8.1998601 19.2196226,8.1998601 C19.0707293,8.346096 18.8340969,8.346096 18.6852055,8.1998601 C18.5416307,8.0536241 18.5416307,7.8143296 18.6852055,7.6680927 C18.6852055,7.6680927 19.6131239,6.679007 20.6128292,5.6606736 C22.9791536,3.24911069 24.117116,1.9170343 24.0081053,1.8080222 C23.9044132,1.704328 23.0509405,2.40360125 20.7404518,4.6662695 C20.1050005,5.2884366 18.1826935,7.1655736 18.1826935,7.1655736 C18.0364599,7.3118095 17.7998276,7.3118095 17.6509361,7.1655736 C17.5047026,7.0193381 17.5047026,6.7800431 17.6509361,6.6311483 C17.6509361,6.6311483 19.5280437,4.7141282 20.1502018,4.0786669 C22.4128313,1.76548097 23.112093,0.9119954 23.0084,0.8083006 C22.8993902,0.69662939 21.567337,1.83992851 19.1558123,4.2062907 C18.137495,5.2033541 17.1484251,6.1286282 17.1484251,6.1286282 C17.0021906,6.2748642 16.7628994,6.2748642 16.6166663,6.1286282 C16.4704332,5.9823923 16.4704332,5.7430973 16.6166663,5.5968613 C16.6166663,5.5968613 18.4618673,3.900525 19.6343946,2.73861431 C21.8943682,0.49721693 22.2665977,0.0638273 22.2081041,0.0079918 C22.1416349,-0.0584791 21.3652678,0.40681683 19.4908199,2.03668209 C18.3076572,3.06565105 16.8373456,4.3924093 15.6727953,5.5569789 C15.6249371,5.6048379 15.5797372,5.6500382 15.5425148,5.6872616 C15.183578,6.0462046 15.4069157,7.3649859 15.6063256,8.2317662 C14.707654,9.1277933 13.6148915,10.1035852 12.9874177,10.6752348 C12.7162199,10.9251652 12.3865299,11.2202949 12.0169587,11.5473337 C11.6633384,11.1990251 11.3203549,10.8613529 11.0066173,10.5555868 L6.8695393,6.4902301 C6.8695393,6.4902301 1.8337898,1.54213892 1.4934616,1.20712571 C1.2036543,0.9252895 1.0015879,1.26827894 0.998898279,1.5022565 C0.9856329,4.769964 5.574708,11.3080377 8.05270052,12.0445356 C8.94073665,12.3104181 10.5333525,12.1083479 10.5333525,12.1083479 C10.5333525,12.1083479 10.6662927,12.259901 10.9002663,12.5231237 C7.63527024,15.3601017 2.7803192,19.4334353 2.3735228,19.8428953 C1.6529903,20.5607813 1.2781019,22.4778003 1.8098583,23.0069103 C2.3389587,23.5386733 4.2559476,23.1637783 4.9738202,22.4432373 C5.279582,22.1401293 7.62463558,19.3616463 9.97234762,16.6124115 C10.3312843,16.1976347 12.0914044,14.1503315 12.21105,14.0120726 C14.6199145,16.7426958 18.8633442,21.5312543 19.6875696,22.3421993 C20.8707323,23.5014533 22.3330688,23.4110523 22.8595076,22.8766253 C22.9658594,22.7702733 23.1466579,22.4778003 22.5005722,21.8449953 C20.5596542,19.9386153 16.5049968,15.9556799 13.2798834,12.7890091 C13.6015973,12.4247475 13.8940644,12.1003704 14.1413321,11.8291702 C14.7129717,11.201683 15.6887479,10.1089029 16.5847607,9.2102165 C17.4488678,9.406971 18.7702866,9.6329718 19.1292238,9.2740292 C19.1664486,9.2368054 19.211647,9.1916056 19.2595062,9.1437459 C20.4267149,7.979177 21.7534513,6.508842 22.7824039,5.32566 C24.409584,3.451182 24.8748722,2.67214345 24.8084021,2.60833143 C24.7525673,2.54983716 24.3191843,2.92207383 22.0778246,5.1820831" id="Fill-23"></path>
</svg>