<?xml version="1.0" encoding="UTF-8"?>
<svg width="13px" height="12px" viewBox="0 0 13 12" version="1.1" xmlns="http://www.w3.org/2000/svg" xmlns:xlink="http://www.w3.org/1999/xlink">
    <!-- Generator: Sketch 60 (88103) - https://sketch.com -->
    <title>Group 53</title>
    <desc>Created with Sketch.</desc>
    <g id="Page-1" stroke="none" stroke-width="1" fill="none" fill-rule="evenodd">
        <g id="Group-53" fill="#FFFFFF">
            <path d="M11.6765475,9.41246275 L8.1325675,5.86847175 L11.4938975,2.50825675 C12.0674175,1.93474775 12.0674175,1.00473975 11.4938975,0.43013175 C10.9192775,-0.14337725 9.9881875,-0.14337725 9.4146775,0.43013175 L6.0533475,3.79033875 L2.6931175,0.43013175 C2.1184975,-0.14337725 1.1874075,-0.14337725 0.6138975,0.43013175 C0.0392775,1.00473975 0.0392775,1.93474775 0.6138975,2.50825675 L3.9752175,5.86847175 L0.4301175,9.41246275 C-0.1433725,9.98485775 -0.1433725,10.9159718 0.4301175,11.4894807 C0.7168575,11.7762318 1.0943875,11.9201608 1.4697275,11.9201608 C1.8450675,11.9201608 2.2225975,11.7762318 2.5093675,11.4894807 L6.0533475,7.94658875 L9.5973475,11.4894807 C9.8841275,11.7762318 10.2615975,11.9201608 10.6369375,11.9201608 C11.0122975,11.9201608 11.3897975,11.7762318 11.6765475,11.4894807 C12.2512175,10.9159718 12.2512175,9.98485775 11.6765475,9.41246275 Z" id="Fill-51"></path>
        </g>
    </g>
</svg>