<?xml version="1.0" encoding="UTF-8"?>
<svg width="34px" height="27px" viewBox="0 0 34 27" version="1.1" xmlns="http://www.w3.org/2000/svg" xmlns:xlink="http://www.w3.org/1999/xlink">
     
            <path d="M34.4885847,14.0388965 C34.0351367,14.2701292 33.4255317,14.6695309 33.2243327,15.3301983 C33.0651737,15.8407106 33.2693767,16.5584345 33.1462557,17.05093 C33.3594667,16.8347111 33.7348367,16.3602352 33.8069097,15.6785478 C33.9060077,14.7175798 34.2333337,14.4473076 34.2333337,14.4473076 C34.2333337,14.4473076 34.0141167,14.651514 33.9120137,15.6034717 C33.8219257,16.426301 33.4465527,16.8557339 33.1072157,17.1740532 C33.0922017,17.2130928 33.0711827,17.2491293 33.0501597,17.2851667 C33.3264327,17.2130928 33.9060077,16.9698496 34.2573567,15.9818535 C34.6117097,14.9968624 34.1402417,14.7295923 34.4885847,14.0388965 L34.4885847,14.0388965 Z M33.8069097,11.2580943 C33.4375437,11.5644026 32.9570677,12.0568991 32.8879987,12.6995468 C32.8369487,13.1920433 33.1522617,13.8016567 33.1252347,14.2791386 C33.2813897,14.0358934 33.5366437,13.5253792 33.4795857,12.8917398 C33.3985047,11.9968386 33.6477527,11.684524 33.6477527,11.684524 C33.6477527,11.684524 33.4855897,11.9157572 33.5606647,12.8016491 C33.6267317,13.5674209 33.3624687,14.0358934 33.1102217,14.3962574 C33.1042117,14.4352951 33.0952037,14.4743347 33.0801907,14.5103712 C33.3174267,14.384244 33.8009017,14.0418997 33.9450477,13.0719213 C34.0891897,12.101944 33.6147197,11.960803 33.8069097,11.2580943 L33.8069097,11.2580943 Z M32.6687817,12.1920357 C32.7048167,11.7175569 33.0952037,11.1619978 33.1072157,10.6634955 C33.1222307,10.0178451 32.7078207,9.4562793 32.3804967,9.0959163 C32.4825977,9.8226485 31.9931107,9.8917179 32.0111297,10.8737068 C32.0321507,11.8556967 32.4645787,12.2701144 32.6837957,12.4262714 C32.6747897,12.3902349 32.6717837,12.3511963 32.6687817,12.3091535 C32.4645787,11.9157572 32.2633797,11.4112491 32.4255387,10.6634955 C32.6147287,9.7986245 32.4825977,9.5433669 32.4825977,9.5433669 C32.4825977,9.5433669 32.6898017,9.8917179 32.4946097,10.7655978 C32.3594737,11.3842211 32.5486617,11.9277692 32.6687817,12.1920357 L32.6687817,12.1920357 Z M31.7949147,10.6965284 C31.7708927,10.6664982 31.7498727,10.6364679 31.7318537,10.6034346 C31.3805067,10.3631925 30.9781057,10.0238509 30.7919217,9.2851071 C30.5757087,8.4232392 30.3504847,8.2700846 30.3504847,8.2700846 C30.3504847,8.2700846 30.6838147,8.4682839 30.8970257,9.3361583 C31.0501787,9.9517784 31.4555777,10.3301592 31.6808037,10.4983287 C31.5006257,10.06289 31.5997237,9.3721943 31.3895147,8.9277468 C31.1192477,8.3541691 30.5066417,8.0778906 30.0622007,7.9337456 C30.4706037,8.5163324 30.0742097,8.8316507 30.5216537,9.6845088 C30.9721017,10.5343652 31.5336567,10.6725044 31.7949147,10.6965284 L31.7949147,10.6965284 Z M30.2724077,18.5794697 C29.8369767,19.0058994 29.2694127,19.6635628 29.1913377,20.3963003 C29.1342797,20.9608688 29.5066487,21.5734848 29.4796217,22.1110268 C29.6628017,21.8047178 29.9631027,21.1770859 29.8910297,20.4803858 C29.7919307,19.4983959 30.0862237,19.0899839 30.0862237,19.0899839 C30.0862237,19.0899839 29.8940317,19.3872824 29.9901277,20.3632679 C30.0712087,21.204113 29.7588977,21.7866988 29.4646057,22.2461628 C29.4555967,22.2912068 29.4435867,22.3362538 29.4285717,22.3812978 C29.7078477,22.1891058 30.2784137,21.6966098 30.4435787,20.5794849 C30.6087397,19.4623594 30.0471837,19.4083052 30.2724077,18.5794697 L30.2724077,18.5794697 Z M28.5366878,22.4683858 C29.0201667,21.4623738 28.4976501,21.2161255 28.9540997,20.5074119 C28.4165688,20.7596664 27.6838417,21.1921024 27.3985577,21.8617748 C27.1793413,22.3812978 27.3595209,23.0930158 27.1763391,23.5945228 C27.4406013,23.3662908 27.9090652,22.8707908 28.0411968,22.1861018 C28.233387,21.2161255 28.6297798,20.9278355 28.6297798,20.9278355 C28.6297798,20.9278355 28.3595123,21.1440525 28.1673222,22.1050228 C28.0021582,22.9338548 27.5366936,23.3843098 27.1222858,23.7176438 C27.101263,23.7566838 27.0772409,23.7957228 27.0502129,23.8317588 C27.3715334,23.7476748 28.0562124,23.4743978 28.5366878,22.4683858 L28.5366878,22.4683858 Z M26.7349014,18.8197117 C27.8279848,17.123003 28.3805332,15.3902588 28.3805332,13.6665211 L28.3805332,1.4682326 L28.233387,1.423187 C26.6598263,0.9637244 24.9931774,0.6093669 23.2784767,0.3721285 C21.5127268,0.1258812 19.6839151,0.0027566 17.8490972,0.0027566 C16.0112755,0.0027566 14.1854646,0.1258812 12.4197158,0.3721285 C10.702013,0.6093669 9.0353625,0.9637244 7.4648066,1.423187 L7.3146582,1.4682326 L7.3146582,13.6665211 C7.3146582,15.3902588 7.8702068,17.123003 8.9632919,18.8197117 C9.8281488,20.1710739 11.0383465,21.5014118 12.551847,22.7746928 C13.8971797,23.9038298 15.2395101,24.7807118 16.128391,25.3182568 C17.0923452,25.9008448 17.7319803,26.2101538 17.7590055,26.2251678 L17.8490972,26.2672118 L17.936182,26.2251678 C17.9632101,26.2101538 18.6028433,25.9008448 19.5667982,25.3182568 C20.458683,24.7807118 21.801013,23.9038298 23.143343,22.7746928 C24.6598463,21.5014118 25.8670406,20.1710739 26.7349014,18.8197117 L26.7349014,18.8197117 Z M26.7889547,13.6665211 C26.7889547,15.0779428 26.3204899,16.522397 25.3955746,17.9608478 C24.6148014,19.1740694 23.5127096,20.3842878 22.1193275,21.5554678 C20.8550749,22.6215398 19.58782,23.4473708 18.7469864,23.9548838 C18.3956375,24.1680988 18.0893354,24.3422718 17.8490972,24.4744068 C17.605854,24.3422718 17.3025541,24.1680988 16.9512062,23.9548838 C16.1103728,23.4473708 14.8401141,22.6185378 13.5758598,21.5554678 C12.182481,20.3842878 11.0803885,19.1740694 10.2996137,17.9608478 C9.3746979,16.522397 8.906234,15.0779428 8.906234,13.6665211 L8.906234,2.6784527 C10.1074231,2.372144 11.356662,2.1258952 12.6389336,1.9487166 C14.3326111,1.711478 16.0833459,1.5913565 17.8490972,1.5913565 C19.6118431,1.5913565 21.3655815,1.711478 23.0592585,1.9487166 C24.3385286,2.1258952 25.5907679,2.372144 26.7889547,2.6784527 L26.7889547,13.6665211 Z M6.741087,20.5254307 C7.1975403,21.2371464 6.6780252,21.4833948 7.1585016,22.4894088 C7.6419811,23.4924178 8.3236554,23.7686958 8.64798,23.8527808 C8.62095,23.8137418 8.5939233,23.7777038 8.5729039,23.7356628 C8.1584938,23.4023248 7.6930313,22.9518718 7.5278673,22.1260418 C7.3356771,21.1620693 7.0684137,20.9488582 7.0684137,20.9488582 C7.0684137,20.9488582 7.4648066,21.2341442 7.6539936,22.2041188 C7.7891283,22.8918128 8.2575924,23.3843098 8.5188506,23.6125378 C8.3386705,23.1110328 8.515846,22.3993168 8.2966287,21.8827968 C8.0113459,21.2101192 7.2816229,20.7806873 6.741087,20.5254307 L6.741087,20.5254307 Z M6.2155676,22.1320478 C6.1885405,21.5945068 6.5639124,20.9788875 6.5038528,20.4143171 C6.4287796,19.6815815 5.8612175,19.0239181 5.4227819,18.6004915 C5.6480055,19.429326 5.0864468,19.4833803 5.2516127,20.6005068 C5.4197779,21.7176318 5.98734,22.2071248 6.2696199,22.3993168 C6.251605,22.3542708 6.2395925,22.3122288 6.2305832,22.2671848 C5.9362898,21.8077198 5.6239796,21.2221317 5.708065,20.3812857 C5.8011551,19.405302 5.6089668,19.1110048 5.6089668,19.1110048 C5.6089668,19.1110048 5.9032583,19.5164127 5.8041592,20.5014057 C5.7320871,21.1981068 6.0323877,21.8227368 6.2155676,22.1320478 L6.2155676,22.1320478 Z M5.1735353,9.7055306 C5.6239796,8.8526711 5.2245846,8.5343511 5.6329899,7.954767 C5.1885481,8.098912 4.5789442,8.3721876 4.3056745,8.9487676 C4.0984688,9.3932156 4.1945639,10.0839114 4.0173855,10.51935 C4.2396069,10.3511805 4.64501,9.9727998 4.7981605,9.3571792 C5.0113735,8.4893052 5.3477068,8.2911057 5.3477068,8.2911057 C5.3477068,8.2911057 5.1194811,8.4442599 4.903264,9.3031249 C4.7170811,10.0448718 4.3176832,10.3812108 3.9663382,10.6214528 C3.9453173,10.6544866 3.9242926,10.6875191 3.9002714,10.7175498 C4.1615286,10.6905227 4.7260876,10.5553865 5.1735353,9.7055306 L5.1735353,9.7055306 Z M3.0113897,12.4472928 C3.230608,12.2881322 3.6660385,11.873714 3.6840563,10.8917255 C3.702076,9.9097366 3.2155943,9.8406668 3.3176947,9.1169371 C2.9903688,9.4773002 2.5759582,10.038866 2.5909729,10.6815133 C2.6029854,11.1800151 2.9903688,11.7355757 3.0264044,12.2100539 C3.1495275,11.9457874 3.3387155,11.4022403 3.2005787,10.7836161 C3.0083866,9.9097366 3.2155943,9.5613851 3.2155943,9.5613851 C3.2155943,9.5613851 3.0804596,9.8166423 3.2696457,10.6845164 C3.4348116,11.4292674 3.230608,11.9367785 3.0264044,12.3301744 C3.0264044,12.3692136 3.0204,12.4082527 3.0113897,12.4472928 L3.0113897,12.4472928 Z M1.888278,11.276113 C2.0834684,11.9788208 1.6089992,12.1229658 1.7531424,13.0899401 C1.8972893,14.0599174 2.3777637,14.4052658 2.618001,14.5283899 C2.6029854,14.4923534 2.5939751,14.4533138 2.5849686,14.4172783 C2.335722,14.0569143 2.0684586,13.5854397 2.1345196,12.8196678 C2.2095966,11.9337749 2.0474338,11.7025423 2.0474338,11.7025423 C2.0474338,11.7025423 2.2966804,12.0178599 2.2156029,12.9127617 C2.1585464,13.5433969 2.4167995,14.0539112 2.5699549,14.2971563 C2.5459299,13.8226786 2.8612432,13.2130642 2.807188,12.7175646 C2.7411241,12.0779204 2.2576437,11.5824218 1.888278,11.276113 L1.888278,11.276113 Z M1.2066021,14.0569143 C1.55795,14.7506132 1.086483,15.0148792 1.43783,16.0028753 C1.7891798,16.9878664 2.3687544,17.2341146 2.6450281,17.3031845 C2.6240063,17.2701511 2.6059885,17.2311115 2.5879698,17.1920719 C2.2516394,16.8737507 1.8732624,16.4443188 1.7861748,15.6244945 C1.6840763,14.6695309 1.4618549,14.4653263 1.4618549,14.4653263 C1.4618549,14.4653263 1.7891798,14.7355976 1.8912821,15.6965675 C1.96035,16.378253 2.335722,16.8527307 2.548934,17.0719519 C2.4258108,16.5764513 2.6300116,15.8587293 2.473856,15.3482151 C2.2696562,14.6905527 1.6600504,14.2881479 1.2066021,14.0569143 L1.2066021,14.0569143 Z M2.951334,18.2251129 C2.4708567,17.6305132 1.6150064,17.4503336 0.9993954,17.3812637 C1.6630545,17.9548406 1.2156095,18.3992891 1.9903812,19.2671633 C2.7651443,20.1380405 3.5309067,20.1710739 3.8792515,20.1410437 C3.8402109,20.1140146 3.8041754,20.0839872 3.771143,20.0509548 C3.2606363,19.8527546 2.6630478,19.5554533 2.2546396,18.756649 C1.9123011,18.083971 1.6480398,17.8407249 1.5279188,17.7506342 C1.627017,17.795681 1.9903812,17.9758634 2.4047899,18.7926855 C2.7381201,19.4563532 3.3507252,19.7986984 3.6810541,19.9428444 C3.3537283,19.4863834 3.323699,18.6815719 2.951334,18.2251129 L2.951334,18.2251129 Z M2.7231054,17.6785622 C3.0083866,17.6455288 3.6179933,17.4773598 4.0744429,16.4683447 C4.5308962,15.4593277 4.0864572,15.0929584 4.5098772,14.4022617 C4.0294018,14.5794411 3.3747482,14.9097729 3.1014814,15.5914612 C2.8882675,16.1169891 3.0204,16.9278059 2.8432245,17.4443264 C3.0804596,17.2431221 3.5098858,16.7926702 3.6510239,16.0659389 C3.8251953,15.1740398 4.0834522,14.9277925 4.1585264,14.8647289 C4.0744429,14.9758406 3.9122839,15.2701378 3.7651367,16.0028753 C3.5909662,16.8767547 3.1645412,17.2791595 2.7921724,17.5674515 C2.7711515,17.6064911 2.7501316,17.6455288 2.7231054,17.6785622 L2.7231054,17.6785622 Z M4.3447113,17.1320124 C4.3447113,17.1320124 4.197567,17.4052887 4.4017687,18.4112997 C4.5789442,19.2731695 4.3477154,19.8287277 4.1224899,20.2581606 C4.1194897,20.3032064 4.1134834,20.3452473 4.1044731,20.38729 C4.3477154,20.2311334 4.831193,19.8047056 4.858223,18.6905813 C4.8852491,17.5764589 4.3447113,17.4473295 4.4618282,16.6365137 C4.0954647,17.0118904 3.633009,17.6064911 3.6480198,18.3422298 C3.6570291,18.9068012 4.0864572,19.5794763 4.1224899,20.1200228 C4.2606277,19.8317327 4.4708366,19.2341308 4.3236895,18.5194092 C4.1134834,17.507391 4.3447113,17.1320124 4.3447113,17.1320124 L4.3447113,17.1320124 Z M4.0143852,14.2100687 C4.6540174,13.5163698 4.3447113,13.0959463 4.8792429,12.6514978 C4.4137783,12.6635098 3.7591305,12.7566042 3.3597345,13.2310829 C3.0504293,13.6004553 2.9783564,14.2941542 2.7020836,14.6635256 C2.9603414,14.5644264 3.4408188,14.3151741 3.7351055,13.7656212 C4.149518,12.9908399 4.5218868,12.894743 4.5218868,12.894743 C4.5218868,12.894743 4.2636318,12.9788284 3.8492193,13.7446003 C3.491868,14.4082689 3.0264044,14.6184807 2.6270103,14.7506132 C2.6029854,14.7776403 2.5729542,14.8016662 2.5429268,14.8226862 C2.8011818,14.8737373 3.3777533,14.9037676 4.0143852,14.2100687 L4.0143852,14.2100687 Z M5.2005606,10.7776108 C5.2005606,10.7776108 4.9423056,10.8616958 4.5278912,11.6304698 C4.1705389,12.2911353 3.702076,12.5013475 3.3056822,12.6364827 C3.278655,12.6605077 3.251626,12.6845322 3.2216005,12.705553 C3.4798536,12.7566042 4.056426,12.7866344 4.693059,12.0929355 C5.3296881,11.3992367 5.0233831,10.9818153 5.5579157,10.5343652 C5.0924549,10.5493803 4.4378042,10.639471 4.0384054,11.1139488 C3.7291031,11.4833221 3.6570291,12.1770205 3.3807554,12.549396 C3.6390133,12.4502959 4.1194897,12.1980414 4.4137783,11.648488 C4.8281908,10.8737068 5.2005606,10.7776108 5.2005606,10.7776108 L5.2005606,10.7776108 Z M2.029417,20.6966019 C2.8402224,20.9608688 2.5729542,21.5524638 3.5909662,22.0479618 C4.6059685,22.5434628 5.3296881,22.2671848 5.6419992,22.0990158 C5.5969524,22.0900058 5.5519113,22.0749898 5.5098686,22.0569728 C4.9693317,22.0809958 4.3116808,22.0449598 3.6600332,21.4683778 C2.9062843,20.795702 2.5549393,20.8107166 2.5549393,20.8107166 C2.5549393,20.8107166 3.0564346,20.7596664 3.8131847,21.4413509 C4.3507175,21.9218368 5.0353985,21.9939078 5.3897486,21.9939078 C4.9302902,21.7026158 4.6299953,20.9668732 4.1314983,20.6905956 C3.4828577,20.3332357 2.6240063,20.5134182 2.029417,20.6966019 L2.029417,20.6966019 Z M6.320672,22.7807008 C5.5609178,22.5344548 4.6780424,22.9098318 4.0804491,23.2311558 C4.9933567,23.3452698 4.8191824,24.0389668 5.9933453,24.3542858 C7.167511,24.6696038 7.8882265,24.2191488 8.1915243,23.9729008 C8.1434784,23.9729008 8.0924263,23.9668958 8.0443802,23.9548838 C7.4708128,24.0960258 6.7621088,24.1981258 5.9633198,23.7146418 C5.0353985,23.1530758 4.6600265,23.2461698 4.6600265,23.2461698 C4.6600265,23.2461698 5.185545,23.0840068 6.1194735,23.6545808 C6.7801256,24.0599878 7.5248632,23.9879148 7.9032412,23.9128398 C7.3597002,23.6996268 6.9062509,22.9728928 6.320672,22.7807008 L6.320672,22.7807008 Z M9.1765015,22.4353528 C9.1765015,22.4353528 9.6179407,22.5734918 10.0293443,23.3122368 C10.3236375,23.8347628 10.8821919,24.1260568 11.1854927,24.2491798 C10.8912015,23.8888168 10.8881979,23.2731948 10.5548692,22.9038238 C10.1254425,22.4293478 9.3356593,22.2491648 8.7680991,22.1680848 C9.3656876,22.6365568 8.9392664,22.9518718 9.6329515,23.6515768 C10.329643,24.3542858 11.0383465,24.4143468 11.3596637,24.4113408 C11.3266332,24.3873198 11.2935982,24.3632948 11.2665734,24.3362678 C10.7951054,24.1590878 10.2485642,23.9068358 9.8912101,23.2762008 C9.4798014,22.5464668 9.1765015,22.4353528 9.1765015,22.4353528 L9.1765015,22.4353528 Z M9.173497,24.4774098 C8.4047368,24.4653988 7.6660042,25.0660018 7.1825247,25.5404778 C8.0593958,25.3873248 8.0744114,26.0690138 9.2155397,26.0449888 C9.3416674,26.0570008 9.4737961,26.0539988 9.6179407,26.0269698 C9.6840043,26.0119548 9.7470648,25.9969408 9.8101292,25.9759198 C10.5518649,25.8107548 10.9632707,25.3933318 11.1704769,25.1230598 C11.095402,25.1681038 11.0173247,25.2101458 10.9362459,25.2491858 C10.5338452,25.4503878 10.047364,25.6005398 9.4407661,25.5254648 C9.320646,25.5104508 9.1945193,25.4894298 9.0653932,25.4533918 C8.0593958,25.1951308 7.73207,25.3873248 7.73207,25.3873248 C7.73207,25.3873248 8.1855214,25.0840208 9.1975219,25.3542918 C9.3807032,25.3993358 9.5608828,25.4203588 9.7350564,25.4233628 C10.4107265,25.4323708 10.9872961,25.1620998 11.1494558,25.0750118 C11.1584659,25.0720098 11.1674755,25.0660018 11.1734815,25.0629978 C11.1794865,25.0599958 11.1854927,25.0569938 11.1884968,25.0539918 C11.3686733,24.9578918 11.8131149,25.0299648 12.1374364,25.1681038 L12.1404386,25.1681038 L12.1374364,25.1681038 C12.2095057,25.2101458 12.356652,25.3092458 12.4197158,25.3633018 C12.8281203,25.6936338 13.3206099,26.2672118 13.3206099,26.2672118 L13.5998851,25.9699138 C13.5998851,25.9699138 12.8161088,25.3753148 12.2995962,25.0629978 L12.3056021,25.0660018 C12.2755736,25.0479828 12.1584581,24.9879248 12.1314286,24.9759118 C11.6269299,24.7296638 11.1464543,24.8317658 10.8221323,24.9188518 C10.7530651,24.9368708 10.6719816,24.9669038 10.5878992,25.0059398 C10.1284423,24.8377728 9.6479673,24.4864198 9.173497,24.4774098 L9.173497,24.4774098 Z M26.5216894,22.4143318 C26.5216894,22.4143318 26.2153864,22.5254438 25.8039799,23.2551808 C25.4496298,23.8858148 24.9000845,24.1410698 24.4316206,24.3182488 C24.4015903,24.3452758 24.371561,24.3693008 24.3355255,24.3933258 C24.6598463,24.3963278 25.3685484,24.3332648 26.0622358,23.6335598 C26.7589245,22.9338548 26.3294983,22.6155358 26.9270925,22.1470638 C26.3625317,22.2311478 25.569747,22.4113288 25.1403227,22.8858068 C24.8099956,23.2521748 24.8039894,23.8677958 24.512701,24.2311608 C24.8129988,24.1050358 25.3745546,23.8137418 25.665843,23.2912158 C26.0772495,22.5524708 26.5216894,22.4143318 26.5216894,22.4143318 L26.5216894,22.4143318 Z M23.3955936,25.0419768 C22.8790808,25.3572958 22.0983086,25.9488908 22.0983086,25.9488908 L22.3775845,26.2461928 C22.3775845,26.2461928 22.8670702,25.6756148 23.2754745,25.3422798 C23.3415394,25.2912288 23.4856825,25.1921288 23.5577526,25.1500858 C23.8820753,25.0089458 24.3295193,24.9398768 24.5066938,25.0329708 C24.512701,25.0359728 24.5367241,25.0509858 24.5457325,25.0569938 C24.7108965,25.1410768 25.287467,25.4113488 25.9601335,25.4053438 C26.1343059,25.4023418 26.3144855,25.3813188 26.4976673,25.3332708 C27.5126724,25.0660018 27.9631176,25.3663048 27.9631176,25.3663048 C27.9631176,25.3663048 27.6387978,25.1741128 26.6327982,25.4353748 C26.5006695,25.4684088 26.3775482,25.4924318 26.2574282,25.5044438 C25.6508284,25.5795178 25.1643467,25.4293688 24.7589436,25.2311688 C24.6808672,25.1891248 24.5997868,25.1470828 24.5247116,25.1050438 C24.7319174,25.3753148 25.146328,25.7897298 25.8880625,25.9548968 C25.948122,25.9759198 26.0141859,25.9939348 26.0802526,26.0059468 C26.2213917,26.0329738 26.3565264,26.0389828 26.4796486,26.0269698 C27.6237812,26.0509948 27.6387978,25.3663048 28.5126629,25.5224628 C28.0291843,25.0479828 27.2934542,24.4443738 26.5216894,24.4593928 C26.0502224,24.4683988 25.569747,24.8197538 25.1102924,24.9849208 C25.0232058,24.9458808 24.9451284,24.9188518 24.8730574,24.9008328 C24.5517387,24.8137478 24.0712624,24.7086408 23.5637598,24.9548908 C23.5367327,24.9699058 23.3955936,25.0419768 23.3955936,25.0419768 L23.3955936,25.0419768 Z M29.7018417,24.3332648 C30.8790077,24.0179478 30.7018337,23.3242488 31.6177407,23.2131368 C31.0171447,22.8888108 30.1342697,22.5164338 29.3775197,22.7626818 C28.7919407,22.9518718 28.3354874,23.6786078 27.7919502,23.8948228 C28.1703224,23.9698998 28.9150639,24.0389668 29.5757177,23.6335598 C30.5126457,23.0629848 31.0351637,23.2251488 31.0351637,23.2251488 C31.0351637,23.2251488 30.6627937,23.1320548 29.7348747,23.6966228 C28.9330807,24.1771068 28.2273827,24.0780068 27.6508093,23.9368668 C27.6027603,23.9488778 27.5547132,23.9548838 27.5036612,23.9548838 C27.8069639,24.2011318 28.5276775,24.6485808 29.7018417,24.3332648 L29.7018417,24.3332648 Z M32.1072257,22.0299458 C33.1222307,21.5344468 32.8549667,20.9398479 33.6657697,20.6755819 C33.0741847,20.4923973 32.2153337,20.3152199 31.5666907,20.6695766 C31.0651927,20.9458542 30.7678987,21.6845968 30.3054407,21.9728868 C30.6627937,21.9728868 31.3474727,21.9038158 31.8850037,21.42033 C32.6417557,20.7386436 33.1402497,20.7926998 33.1402497,20.7926998 C33.1402497,20.7926998 32.7889007,20.7746792 32.0351547,21.4473572 C31.3835087,22.0269408 30.7288587,22.0599748 30.1853217,22.0389538 C30.1432777,22.0539688 30.1012387,22.0689848 30.0531907,22.0809958 C30.3685017,22.2461628 31.0892167,22.5254438 32.1072257,22.0299458 L32.1072257,22.0299458 Z M32.9720837,17.6575422 C32.9450567,17.6245088 32.9240337,17.5884724 32.9060177,17.5464287 C32.5306437,17.2611418 32.1072257,16.858736 31.9330517,15.9818535 C31.7859077,15.2491159 31.6207427,14.9578228 31.5396657,14.8467102 C31.6117347,14.9067707 31.8699917,15.1530189 32.0441627,16.0449171 C32.1883147,16.7716484 32.6147287,17.2251062 32.8519647,17.4233045 C32.6747897,16.9097872 32.8069187,16.0959692 32.5967107,15.5704403 C32.3234407,14.891756 31.6687887,14.5584202 31.1883147,14.384244 C31.6117347,15.0749397 31.1642917,15.441309 31.6207427,16.450325 C32.0801987,17.459342 32.6867997,17.6275129 32.9720837,17.6575422 L32.9720837,17.6575422 Z M31.5726967,20.2371397 C31.3474727,19.8077049 31.1192477,19.2551508 31.2964227,18.3902788 C31.5006257,17.387269 31.3534777,17.1109905 31.3534777,17.1109905 C31.3534777,17.1109905 31.5847077,17.4863701 31.3714957,18.4983892 C31.2243517,19.21311 31.4375627,19.813714 31.5726967,20.102004 C31.6117347,19.5584564 32.0381567,18.8887815 32.0471647,18.3212099 C32.0621817,17.5854692 31.5997237,16.9908695 31.2363627,16.6154919 C31.3534777,17.4293117 30.8129447,17.555439 30.8399697,18.6695604 C30.8669967,19.7836847 31.3474727,20.2101126 31.5937177,20.3692722 C31.5817047,20.3242273 31.5756987,20.2821865 31.5726967,20.2371397 L31.5726967,20.2371397 Z M30.4946267,10.7595925 C30.4946267,10.7595925 30.8669967,10.855689 31.2814067,11.6304698 C31.5756987,12.1800232 32.0591777,12.4292745 32.3144317,12.5283742 C32.0381567,12.1590023 31.9660857,11.4653029 31.6567807,11.0959306 C31.2603857,10.6184497 30.6027357,10.5283584 30.1402757,10.5163469 C30.6748067,10.9607949 30.3654997,11.3812189 31.0021287,12.0719147 C31.6417637,12.7656135 32.2183337,12.7385855 32.4765907,12.6875343 C32.4465637,12.6665139 32.4165327,12.6424894 32.3895057,12.6154618 C31.9931107,12.4833288 31.5246487,12.2731171 31.1672937,11.6094484 C30.7528837,10.843677 30.4946267,10.7595925 30.4946267,10.7595925 L30.4946267,10.7595925 Z M31.1733017,12.8767252 C31.1733017,12.8767252 31.5456677,12.9698191 31.9600787,13.7476025 C32.2543717,14.2971563 32.7348477,14.5464077 32.9931027,14.6455078 C32.7168297,14.2761354 32.6447587,13.5794334 32.3354507,13.2130642 C31.9390587,12.7355833 31.2814067,12.6454921 30.8159447,12.6334801 C31.3504777,13.0779276 31.0441727,13.4953489 31.6808037,14.1890478 C32.3174327,14.8827467 32.8940047,14.8557196 33.1552617,14.8016662 C33.1222307,14.7806435 33.0952037,14.7566194 33.0681767,14.7325945 C32.6717837,14.5974598 32.2033217,14.3902511 31.8459667,13.7265816 C31.4315567,12.9608097 31.1733017,12.8767252 31.1733017,12.8767252 L31.1733017,12.8767252 Z M31.8159367,20.123024 C32.1642817,20.1500521 32.9300407,20.1170187 33.7048087,19.2491436 C34.4825797,18.3782673 34.0321307,17.9338207 34.6957897,17.3602419 C34.0831837,17.4323149 33.2243327,17.6124954 32.7438567,18.204093 C32.3714867,18.660552 32.3444617,19.4653635 32.0141317,19.9218225 C32.3444617,19.7776775 32.9570677,19.4383345 33.2933997,18.7716617 C33.7048087,17.9548406 34.0711707,17.7746601 34.1702687,17.7296142 C34.0471497,17.819705 33.7858887,18.0659532 33.4435497,18.7356272 C33.0351427,19.5374355 32.4375517,19.8317327 31.9240437,20.0299311 C31.8910117,20.0629654 31.8549747,20.0959978 31.8159367,20.123024 L31.8159367,20.123024 Z" id="Fill-13"></path>

</svg>