<?xml version="1.0" encoding="UTF-8"?>
<svg width="21px" height="18px" viewBox="0 0 21 18" version="1.1" xmlns="http://www.w3.org/2000/svg" xmlns:xlink="http://www.w3.org/1999/xlink">
    <path d="M20.0686161,9.50004991 L0.5894306,9.50004991 C0.2628853,9.50004991 0.0002301,9.16571256 0.0002301,8.75004988 C0.0002301,8.33739927 0.2628853,8.00004991 0.5894306,8.00004991 L20.0686161,8.00004991 C20.3951628,8.00004991 20.657819,8.33739927 20.657819,8.75004988 C20.657819,9.16571256 20.3951628,9.50004991 20.0686161,9.50004991" id="Fill-38"></path>
        <path d="M20.0686161,17.5000499 L0.5894306,17.5000499 C0.2628853,17.5000499 0.0002301,17.1657126 0.0002301,16.7500499 C0.0002301,16.3373993 0.2628853,16.0000499 0.5894306,16.0000499 L20.0686161,16.0000499 C20.3951628,16.0000499 20.657819,16.3373993 20.657819,16.7500499 C20.657819,17.1657126 20.3951628,17.5000499 20.0686161,17.5000499" id="Fill-40"></path>
        <path d="M20.0686161,1.50004991 L0.5894306,1.50004991 C0.2628853,1.50004991 0.0002301,1.16571256 0.0002301,0.75004988 C0.0002301,0.33739927 0.2628853,4.991e-05 0.5894306,4.991e-05 L20.0686161,4.991e-05 C20.3951628,4.991e-05 20.657819,0.33739927 20.657819,0.75004988 C20.657819,1.16571256 20.3951628,1.50004991 20.0686161,1.50004991" id="Fill-42"></path>
</svg>