<?xml version="1.0" encoding="UTF-8"?>
<svg width="26px" height="27px" viewBox="0 0 26 27" version="1.1" xmlns="http://www.w3.org/2000/svg" xmlns:xlink="http://www.w3.org/1999/xlink">
    <path d="M12.7400703,1.67524481 L12.9136534,1.96150923 L13.8485661,3.49637417 L14.5307169,4.62315987 L15.2128687,5.74080897 L16.4188137,5.23832317 L17.8805666,4.62620447 L19.0834665,4.12067417 C19.1809168,4.08108497 19.278367,4.03844927 19.3758163,3.99276897 C19.4397688,3.96536037 19.5128555,3.93186117 19.5828981,3.90140767 L19.5615797,4.17244557 L19.3027296,7.33049107 L19.1961431,8.63390827 L20.4690857,8.93539997 L21.5653995,9.19425677 L23.2707745,9.59928897 C23.3682275,9.62060647 23.4687215,9.64192387 23.5722595,9.66324237 C23.6453515,9.67846967 23.7336635,9.69978717 23.8189335,9.71805857 L23.5783515,9.99518677 L21.7572535,12.1147642 L21.5714895,12.3309841 L20.7157555,13.3207302 L21.5714895,14.3135195 L23.4047675,16.4452763 C23.4748115,16.5275021 23.5448535,16.6066819 23.6179445,16.6858597 C23.6788485,16.7528591 23.7549815,16.8381272 23.8219775,16.9173088 L23.5296285,16.9843064 L20.4690857,17.709101 L19.1961431,18.010593 L19.3027296,19.314011 L19.3149099,19.481506 L19.53722,22.167519 C19.5463543,22.274105 19.5585356,22.380693 19.5707169,22.49337 C19.576807,22.563416 19.5859432,22.651732 19.5950785,22.737 L19.3666811,22.639549 L16.4188137,21.406176 L15.2128687,20.900648 L14.5307169,22.021341 L13.9856052,22.922771 L12.7461615,24.960117 L12.5451698,24.63122 L12.1705956,24.01301 L11.3666315,22.688274 L10.958559,22.021341 L10.2794533,20.900648 L9.0704617,21.406176 L7.7396586,21.963478 L6.4088552,22.520777 C6.3114049,22.563416 6.2139552,22.606052 6.1134591,22.651732 C6.0525523,22.679138 5.979465,22.712641 5.9063776,22.743094 L5.9307399,22.472055 L6.1895924,19.314011 L6.2961781,18.010593 L5.02323567,17.709101 L4.72174984,17.636013 L2.2215431,17.0452137 C2.1240933,17.0238972 2.0235977,17.0025788 1.9200566,16.9812603 C1.8469696,16.9629898 1.758656,16.9447155 1.6733866,16.9264431 L1.8043351,16.7741776 L1.9139664,16.6493149 L2.4651685,16.0067425 L3.92083099,14.3135195 L4.77351951,13.3207302 L3.92083099,12.3309841 L2.0845041,10.1961813 C2.0175073,10.1170025 1.9444199,10.0378228 1.8713324,9.95559697 C1.8134708,9.88859937 1.7373378,9.80637547 1.6703412,9.72719477 L1.9626906,9.66019727 L5.02323567,8.93539997 L6.2961781,8.63390827 L6.1895924,7.33049107 L6.0525523,5.65249347 L5.9551027,4.47698207 C5.9459672,4.37039427 5.9337857,4.26076077 5.9216043,4.15112807 C5.9124681,4.07803937 5.9033323,3.99276897 5.8972421,3.90749857 L6.1256405,4.00495057 L7.6757071,4.65361307 L9.0704617,5.23832317 L10.2794533,5.74080897 L10.958559,4.62315987 L12.1584148,2.64976217 L12.4599009,2.15336752 C12.5116711,2.07114232 12.5634422,1.97978139 12.6152134,1.88842046 C12.6517563,1.8275131 12.6943903,1.7513789 12.7400703,1.67524481 M12.7096176,0.00029296 C12.6243477,0.00029296 12.5390787,0.00638366 12.4507656,0.02161062 C11.7899313,0.11297143 11.4671273,0.85908637 11.1595497,1.36461729 C10.6601186,2.1868664 10.1606855,3.00911567 9.6582084,3.83440947 C8.6776161,3.42328497 7.6939793,3.01216097 6.7133868,2.60103607 L6.1652299,2.36958827 C6.0129635,2.30868117 5.85460722,2.27822747 5.69929611,2.27822747 C5.26990604,2.27822747 4.84660697,2.50053917 4.5968914,2.85684727 C4.23754352,3.36237817 4.38980935,4.02931337 4.43853438,4.60184237 C4.51771292,5.55199627 4.59384617,6.50519557 4.67302459,7.45535087 C3.65284311,7.69593577 2.63266158,7.93651917 1.6124799,8.17710257 C1.4206247,8.22278357 1.2287705,8.26846407 1.0338695,8.31414417 C0.4674406,8.44814067 0.035007,8.94758127 0.0015073,9.53229137 C-0.0380812,10.2205448 0.5192113,10.7108479 0.9333742,11.1889725 C1.5424373,11.9015904 2.1545463,12.6111594 2.76665508,13.3207302 C2.0966861,14.1003428 1.4297614,14.8769121 0.7597916,15.6565276 C0.6288426,15.805748 0.5009384,15.9549723 0.3730364,16.1041947 C-0.0319901,16.5731793 -0.1233506,17.2066174 0.205543,17.745647 C0.5588005,18.321222 1.2774947,18.388218 1.8713324,18.528307 C2.80624413,18.747574 3.73811122,18.969885 4.67302459,19.189152 C4.58470997,20.242849 4.49944043,21.293497 4.41417232,22.347193 C4.39590038,22.545145 4.38067375,22.740047 4.36544697,22.937996 C4.31672196,23.528797 4.68520546,24.067829 5.22727191,24.27796 C5.3704015,24.335821 5.5135318,24.357138 5.65361678,24.357138 C6.11955,24.357138 6.5672114,24.104374 6.9935563,23.924696 C7.8827887,23.553162 8.7720213,23.181625 9.6582084,22.810091 C10.0632358,23.473984 10.4652176,24.137871 10.870245,24.80176 C11.0986438,25.179386 11.3300881,25.560057 11.5584865,25.937683 C11.8417015,26.400579 12.295454,26.638117 12.7522516,26.638117 C13.1511879,26.638117 13.5501251,26.458439 13.8333387,26.086905 C13.8516111,26.062544 13.8698835,26.038181 13.888155,26.010773 C14.536808,24.944891 15.185461,23.875971 15.8310671,22.810091 C16.8147058,23.221214 17.7952957,23.632341 18.7789335,24.043463 L19.3270931,24.271866 C19.4763117,24.335821 19.6346683,24.366276 19.793025,24.366276 C20.222414,24.366276 20.6426678,24.143961 20.8954296,23.787653 C21.2547755,23.282124 21.0994645,22.615187 21.0537855,22.042658 C20.9746075,21.089462 20.8954296,20.139307 20.8192959,19.189152 C21.8394755,18.948568 22.8596575,18.707983 23.8767945,18.4674 C24.0716955,18.421719 24.2635475,18.37604 24.4554045,18.330359 C25.0248755,18.196362 25.4573115,17.696922 25.4908105,17.1122094 C25.5273555,16.4239579 24.9731065,15.9336558 24.5589425,15.4555331 C23.9468345,14.7429152 23.3347285,14.0333462 22.7256645,13.3207302 C23.3925875,12.5441599 24.0625595,11.7675925 24.7325265,10.9879771 C24.8604315,10.8387537 24.9913765,10.6895323 25.1192815,10.5372629 C25.5212655,10.0713215 25.6156695,9.43788437 25.2867755,8.89885427 C24.9335195,8.32328077 24.2148245,8.25628277 23.6209865,8.11619567 C22.6860735,7.89692877 21.7511635,7.67461777 20.8192959,7.45535087 C20.9045677,6.40165327 20.9928795,5.35100267 21.0781475,4.29730537 C21.0933745,4.09935637 21.1116485,3.90140767 21.1268735,3.70650457 C21.1755965,3.11570337 20.8071136,2.57667327 20.2620048,2.36654317 C20.1188745,2.30868117 19.9787893,2.28736357 19.835659,2.28736357 C19.3727722,2.28736357 18.9220648,2.54012897 18.4957199,2.71980567 C17.6095314,3.09134057 16.7203007,3.46287517 15.8310671,3.83440947 C15.2920475,2.94516257 14.7530251,2.05896092 14.2140036,1.17275912 C14.1104641,1.00221861 14.0099678,0.83167806 13.9064264,0.664182888 C13.6323481,0.21346855 13.199913,0.00029296 12.7096176,0.00029296" id="Fill-17"></path>
</svg>