<?xml version="1.0" encoding="UTF-8"?>
<svg width="24px" height="24px" viewBox="0 0 24 24" version="1.1" xmlns="http://www.w3.org/2000/svg" xmlns:xlink="http://www.w3.org/1999/xlink">
    <path d="M23.2553749,7.99540333 C23.2553749,7.61784951 22.9496145,7.31208301 22.5720653,7.31208301 C22.1945162,7.31208301 21.8887567,7.61784951 21.8887567,7.99540333 L21.8887567,18.4685517 C21.8887567,20.3536654 20.3519745,21.8878127 18.4668913,21.8878127 L4.7874107,21.8878127 C2.902329,21.8878127 1.3682055,20.3536654 1.3682055,18.4685517 L1.3682055,4.7888496 C1.3682055,2.9037352 2.902329,1.3695884 4.7874107,1.3695884 L15.9623098,1.3695884 C16.3425178,1.3695884 16.6482787,1.0611635 16.6482787,0.6836081 C16.6482787,0.3060546 16.3425178,0.000289 15.9623098,0.000289 L4.7874107,0.000289 C2.1472325,0.000289 0.0015879,2.1486273 0.0015879,4.7888496 L0.0015879,18.4685517 C0.0015879,21.1087733 2.1472325,23.2571125 4.7874107,23.2571125 L18.4668913,23.2571125 C21.1070719,23.2571125 23.2553749,21.1087733 23.2553749,18.4685517 L23.2553749,7.99540333 Z M21.7239113,3.5976918 C21.5776768,3.081878 21.1017542,2.7229348 20.567337,2.7229348 C20.4583254,2.7229348 20.3493166,2.7388888 20.2429647,2.7681356 C16.2600951,3.8981395 13.4258237,8.05123929 11.7481265,11.3375583 L11.2004161,12.411727 L10.4213896,11.4917703 C9.01488977,9.8273402 7.49140345,8.6388418 5.8934688,7.95817927 C5.7419181,7.89436809 5.5850496,7.86246143 5.4228644,7.86246143 C4.9416218,7.86246143 4.5082388,8.1469572 4.3194637,8.59098271 C4.1918421,8.8861123 4.1891842,9.2131496 4.3088293,9.5082801 C4.4284754,9.8060699 4.6571321,10.040047 4.9522567,10.1650129 C8.29967533,11.590148 10.3389679,15.5730811 10.3602385,15.6129637 C10.5649655,16.0144482 10.9744186,16.2670374 11.4290724,16.2670374 C11.4530005,16.2670374 11.4742713,16.2670374 11.4928832,16.2643776 C11.9927359,16.2298136 12.4048486,15.9134121 12.561717,15.4560919 C12.5936222,15.368351 15.6937723,6.55165718 20.897027,5.0786631 C21.2054462,4.9909213 21.4606905,4.7888496 21.6175604,4.5096715 C21.7717695,4.2304943 21.8116512,3.9061156 21.7239113,3.5976918 Z" id="Fill-20"></path>
</svg>